<svg id="_0090_code_development_outline" data-name="0090_code_development_outline" xmlns="http://www.w3.org/2000/svg" viewBox="0 0 500 500" data-imageid="coding-29" imageName="Coding" class="illustrations_image" style="width: 144px;"><defs><style>.cls-1_coding-29{fill:#d1d3d4;}.cls-2_coding-29{fill:#fff;}.cls-3_coding-29{fill:#231f20;}.cls-4_coding-29{fill:#68e1fd;}</style></defs><path id="Cable_coding-29" class="cls-1_coding-29" d="M291.19,394.29a33.74,33.74,0,0,1-9.74-1.29c-8.34-2.51-15.8-9.49-20.46-19.16-4.17-8.65-5.84-18.19-7.45-27.42a.64.64,0,0,1,.52-.74.63.63,0,0,1,.73.52c1.6,9.14,3.25,18.59,7.35,27.09,4.5,9.34,11.68,16.09,19.68,18.5,5.81,1.74,12.16,1.33,18.15.61,12.82-1.53,20.65-5.5,23.93-12.14.12-.26.23-.5.32-.73-2.06.59-4.09,1.33-6.08,2.06-1.64.6-3.34,1.22-5.05,1.75a54.32,54.32,0,0,1-25.58,1.59c-4.11-.74-6.62-2.72-6.72-5.31s2.15-4.65,6.13-5.81a64,64,0,0,1,33.54-.61c3.14.79,4.87,2.09,5.28,4a4.38,4.38,0,0,1,.08.62c.5-.11,1-.22,1.51-.31,5.3-.94,10.85-.41,16.21.11,7.61.73,14.8,1.42,21.29-1.76a.64.64,0,1,1,.56,1.14c-6.81,3.33-14.52,2.6-22,1.88-5.28-.51-10.74-1-15.87-.12-.63.11-1.25.25-1.88.4a8.22,8.22,0,0,1-.63,1.67c-3.48,7.06-11.63,11.26-24.92,12.84A75.37,75.37,0,0,1,291.19,394.29Zm13.63-21.76a62.59,62.59,0,0,0-17.54,2.5c-1.6.46-5.31,1.84-5.22,4.54.11,2.89,4.37,3.87,5.67,4.11a53,53,0,0,0,25-1.55c1.67-.52,3.36-1.14,5-1.73,2.22-.82,4.5-1.65,6.84-2.28a2.85,2.85,0,0,0-.05-.66c-.3-1.38-1.72-2.37-4.35-3A62.62,62.62,0,0,0,304.82,372.53Z"/><g id="Smartphone_coding-29"><rect class="cls-2_coding-29" x="353.84" y="194.18" width="97.55" height="194.46" rx="6.22"/><path class="cls-3_coding-29" d="M445.18,389.27H360.06a6.85,6.85,0,0,1-6.85-6.85v-182a6.86,6.86,0,0,1,6.85-6.86h85.12A6.86,6.86,0,0,1,452,200.4v182A6.85,6.85,0,0,1,445.18,389.27ZM360.06,194.81a5.59,5.59,0,0,0-5.58,5.59v182a5.58,5.58,0,0,0,5.58,5.58h85.12a5.58,5.58,0,0,0,5.58-5.58v-182a5.59,5.59,0,0,0-5.58-5.59Z"/><rect class="cls-4_coding-29 targetColor" x="358.97" y="211.77" width="87.31" height="149.66" style="fill: rgb(135, 188, 126);"/><rect class="cls-2_coding-29" x="390.5" y="368.7" width="24.25" height="14" rx="3.82"/><path class="cls-1_coding-29" d="M410.92,383.34h-16.6a4.47,4.47,0,0,1-4.46-4.46v-6.35a4.46,4.46,0,0,1,4.46-4.46h16.6a4.46,4.46,0,0,1,4.46,4.46v6.35A4.47,4.47,0,0,1,410.92,383.34Zm-16.6-14a3.19,3.19,0,0,0-3.19,3.19v6.35a3.19,3.19,0,0,0,3.19,3.18h16.6a3.19,3.19,0,0,0,3.19-3.18v-6.35a3.19,3.19,0,0,0-3.19-3.19Z"/><path class="cls-1_coding-29" d="M411.44,203.23H386.58a.64.64,0,0,1-.64-.63.64.64,0,0,1,.64-.64h24.86a.64.64,0,0,1,.63.64A.63.63,0,0,1,411.44,203.23Z"/><path class="cls-1_coding-29" d="M418.26,203.23h-3.33a.63.63,0,0,1-.64-.63.64.64,0,0,1,.64-.64h3.33a.64.64,0,0,1,.63.64A.63.63,0,0,1,418.26,203.23Z"/><path class="cls-2_coding-29" d="M435.19,305.8H370.05a4.9,4.9,0,0,1-4.89-4.9V268.71a4.9,4.9,0,0,1,4.89-4.9h65.14a4.9,4.9,0,0,1,4.89,4.9V300.9A4.9,4.9,0,0,1,435.19,305.8Zm-65.14-40.72a3.63,3.63,0,0,0-3.62,3.63V300.9a3.63,3.63,0,0,0,3.62,3.63h65.14a3.63,3.63,0,0,0,3.62-3.63V268.71a3.63,3.63,0,0,0-3.62-3.63Z"/><path class="cls-2_coding-29" d="M365.8,302.1a.64.64,0,0,1-.4-1.14l32.27-25.54a.66.66,0,0,1,.86.06l19.25,20a.64.64,0,0,1,0,.9.63.63,0,0,1-.9,0L398,276.78,366.19,302A.67.67,0,0,1,365.8,302.1Z"/><path class="cls-2_coding-29" d="M439.45,295.68a.64.64,0,0,1-.48-.21l-10.69-12.12-12.22,10.21a.64.64,0,0,1-.82-1L427.94,282a.63.63,0,0,1,.88.07l11.11,12.58a.64.64,0,0,1-.06.9A.61.61,0,0,1,439.45,295.68Z"/><path class="cls-2_coding-29" d="M417.32,280.88a5,5,0,1,1,4.95-5A5,5,0,0,1,417.32,280.88Zm0-8.64a3.69,3.69,0,1,0,3.68,3.68A3.68,3.68,0,0,0,417.32,272.24Z"/><rect class="cls-2_coding-29" x="367.09" y="337.05" width="12.46" height="14.44" rx="4.47"/><rect class="cls-2_coding-29" x="386.63" y="337.05" width="12.46" height="14.44" rx="4.47"/><rect class="cls-2_coding-29" x="406.16" y="337.05" width="12.46" height="14.44" rx="4.47"/><rect class="cls-2_coding-29" x="425.69" y="337.05" width="12.46" height="14.44" rx="4.47"/><path class="cls-2_coding-29" d="M438.52,224.25h-71.8a.64.64,0,0,1-.63-.64.63.63,0,0,1,.63-.63h71.8a.64.64,0,0,1,.64.63A.64.64,0,0,1,438.52,224.25Z"/><path class="cls-2_coding-29" d="M438.52,234.36h-71.8a.63.63,0,0,1-.63-.63.64.64,0,0,1,.63-.64h71.8a.64.64,0,0,1,.64.64A.64.64,0,0,1,438.52,234.36Z"/><path class="cls-2_coding-29" d="M438.52,244.48h-71.8a.64.64,0,0,1,0-1.27h71.8a.64.64,0,1,1,0,1.27Z"/><path class="cls-2_coding-29" d="M438.52,254.6h-71.8a.64.64,0,0,1-.63-.64.63.63,0,0,1,.63-.63h71.8a.64.64,0,0,1,.64.63A.64.64,0,0,1,438.52,254.6Z"/><path class="cls-2_coding-29" d="M438.52,317.28h-71.8a.64.64,0,0,1,0-1.27h71.8a.64.64,0,1,1,0,1.27Z"/><path class="cls-2_coding-29" d="M438.52,327.4h-71.8a.64.64,0,0,1-.63-.64.63.63,0,0,1,.63-.63h71.8a.64.64,0,0,1,.64.63A.64.64,0,0,1,438.52,327.4Z"/></g><g id="Character_coding-29"><path class="cls-2_coding-29" d="M425.15,125.86s1.6-6.85.11-10.75a5.61,5.61,0,0,0-5.6-3.52s-10.84-2.41-14-5.24l1.42,5a14.37,14.37,0,0,1-5.42-1.48,4.94,4.94,0,0,0,1.41,4.81,5.77,5.77,0,0,1-5-.06s3,7.29,9.87,6.48C412.51,120.56,420.48,127.42,425.15,125.86Z"/><path class="cls-3_coding-29" d="M423.62,126.73c-2.47,0-5.37-1.36-8.19-2.67s-5.48-2.57-7.38-2.34c-7.31.85-10.5-6.79-10.53-6.87a.65.65,0,0,1,.17-.72.67.67,0,0,1,.74-.07,4.69,4.69,0,0,0,3.53.34,5.76,5.76,0,0,1-.88-4.7.66.66,0,0,1,.34-.41.64.64,0,0,1,.54,0,16.1,16.1,0,0,0,4.29,1.33l-1.17-4.1a.65.65,0,0,1,.28-.71.63.63,0,0,1,.76.07c2.82,2.56,12.54,4.83,13.58,5.07a6.16,6.16,0,0,1,6.15,3.94c1.55,4,0,10.83-.09,11.11a.62.62,0,0,1-.41.46A5.54,5.54,0,0,1,423.62,126.73Zm1.53-.87h0Zm-16.65-5.43c2.14,0,4.74,1.2,7.47,2.48,3.12,1.46,6.35,3,8.63,2.44.3-1.44,1.28-6.84.07-10a5,5,0,0,0-5-3.12.61.61,0,0,1-.19,0c-.39-.09-8.54-1.91-12.73-4.32l.94,3.28a.66.66,0,0,1-.11.56.63.63,0,0,1-.51.25,14.32,14.32,0,0,1-4.91-1.2,3.93,3.93,0,0,0,1.31,3.41.64.64,0,0,1-.13,1.06,7,7,0,0,1-3.95.52c1.19,2,3.89,5.23,8.47,4.69Q408.2,120.43,408.5,120.43Z"/><path class="cls-4_coding-29 targetColor" d="M434.28,183.2s9.44-20.65,8.29-34.19-10-14.36-13.09-14.55-19.36-2.37-25.31,4.92-4.41,42.37-4.41,42.37Z" style="fill: rgb(135, 188, 126);"/><path class="cls-3_coding-29" d="M399.09,174.8s-7.82,3.22-19.82,11.37c-5.51,3.74-8.64,43.21-8.64,43.21s1.14,6.34,8.48,5.35l19.31-44S405.3,174.64,399.09,174.8Z"/><path class="cls-3_coding-29" d="M377.6,235.47a7.57,7.57,0,0,1-7.6-6,1,1,0,0,1,0-.17c.33-4.07,3.32-39.87,8.92-43.67,11.92-8.09,19.86-11.41,19.94-11.44a.87.87,0,0,1,.22-.05,2.82,2.82,0,0,1,2.53,1.21C404,179,399.53,189.79,399,191l-19.32,44a.63.63,0,0,1-.5.38A12.89,12.89,0,0,1,377.6,235.47Zm-6.33-6.13c.15.69,1.41,5.42,7.4,4.8l19.17-43.64c1.34-3.14,4.44-11.86,2.71-14.42a1.5,1.5,0,0,0-1.33-.65,127.09,127.09,0,0,0-19.59,11.27C375.33,189.61,372.14,218.38,371.27,229.34Z"/><path class="cls-3_coding-29" d="M435.06,178.85s-27.74.8-34.26-.16c0,0-.37.08-5.16,8.9s2.09,49.1,2.09,49.1S404,243.36,409,242.4l5.9-45.93s10.05.3,15.63-3.7C434.48,190,434.31,184,435.06,178.85Z"/><path class="cls-3_coding-29" d="M408,243.13c-5,0-10.49-5.74-10.74-6a.64.64,0,0,1-.16-.33c-.29-1.66-6.87-40.6-2-49.51,4.93-9.07,5.28-9.15,5.58-9.22a.91.91,0,0,1,.23,0c6.39.95,33.87.17,34.15.16a.62.62,0,0,1,.49.21.64.64,0,0,1,.16.51c-.14.95-.25,1.93-.36,2.91-.48,4.42-1,9-4.41,11.44-5,3.56-13.18,3.82-15.44,3.82l-5.83,45.37a.63.63,0,0,1-.51.55A6.09,6.09,0,0,1,408,243.13Zm-9.68-6.74c.88.89,6,5.83,10.12,5.45l5.84-45.45a.63.63,0,0,1,.65-.55c.1,0,9.91.24,15.24-3.59,3-2.12,3.44-6.4,3.89-10.54.08-.74.16-1.48.26-2.2-4.48.12-26.77.67-33.26-.14-.37.54-1.54,2.39-4.87,8.53C391.73,196.11,397.82,233.35,398.33,236.39Z"/><path class="cls-4_coding-29 targetColor" d="M404.17,139.38s-4.39,8.45-7,12.8A88.5,88.5,0,0,1,389,162.76s-19.93,7.09-20.06,7.47,1.89,7.09,1.89,7.09,20.92-1.51,24.37-3.14,10.48-9.69,10.48-9.69Z" style="fill: rgb(135, 188, 126);"/><path class="cls-2_coding-29" d="M412.29,134.84l1.19,7.22a5.37,5.37,0,0,0,6.88,1.71c4.52-2,4.54-5.48,4.54-5.48L422.47,125s-4.22-1.64-6.41-9.85c0,0-10.42.8-9.74,4.71,0,0-.12,7.35,1,11S412.21,134.8,412.29,134.84Z"/><path class="cls-3_coding-29" d="M417.79,145A6.11,6.11,0,0,1,413,142.4a.5.5,0,0,1-.09-.24l-1.13-6.8a6.72,6.72,0,0,1-5-4.4c-1.14-3.65-1-10.85-1-11.16a2.49,2.49,0,0,1,.57-2c2.06-2.64,9-3.24,9.76-3.3a.65.65,0,0,1,.66.47c2.06,7.74,6,9.4,6,9.42a.62.62,0,0,1,.39.48l2.44,13.33c0,.27-.07,4-4.91,6.17A7,7,0,0,1,417.79,145Zm-3.7-3.18a4.71,4.71,0,0,0,6,1.37c4.06-1.78,4.16-4.77,4.16-4.9l-2.36-12.89c-1.06-.57-4.37-2.82-6.31-9.59-2.27.23-7,1-8.33,2.77a1.38,1.38,0,0,0-.31,1.14c0,.19-.1,7.42,1,10.87a5.64,5.64,0,0,0,4.41,3.62,1.12,1.12,0,0,1,.26.08.64.64,0,0,1,.32.45Z"/><path class="cls-2_coding-29" d="M419.66,125.22a3.14,3.14,0,0,1,.75-1.84,5.6,5.6,0,0,1,1.51-1.12,2.3,2.3,0,0,1,1-.36,1.76,1.76,0,0,1,.72.12,2.41,2.41,0,0,1,1.35,1,2.78,2.78,0,0,1,.3,1.34,5.8,5.8,0,0,1-.1,1.5,3.81,3.81,0,0,1-4.61,2.83"/><path class="cls-3_coding-29" d="M421.44,129.44a4.22,4.22,0,0,1-1.06-.13.63.63,0,0,1,.31-1.23,3.18,3.18,0,0,0,3.84-2.36,5.38,5.38,0,0,0,.09-1.34,2.31,2.31,0,0,0-.22-1,1.84,1.84,0,0,0-1-.72,1.78,1.78,0,0,0-.47-.09,1.82,1.82,0,0,0-.69.28,4.86,4.86,0,0,0-1.34,1,2.56,2.56,0,0,0-.6,1.46.64.64,0,0,1-.67.6.65.65,0,0,1-.6-.68,3.76,3.76,0,0,1,.91-2.21,6.21,6.21,0,0,1,1.68-1.27,2.79,2.79,0,0,1,1.24-.44,2.6,2.6,0,0,1,1,.16,3,3,0,0,1,1.69,1.28,3.42,3.42,0,0,1,.39,1.63,6.12,6.12,0,0,1-.12,1.67,4.45,4.45,0,0,1-4.33,3.44Z"/><path class="cls-2_coding-29" d="M413.08,123.29s-2,4.07-1.28,4.63,2.28-.1,2.28-.1"/><path class="cls-3_coding-29" d="M412.6,128.78a1.87,1.87,0,0,1-1.21-.37c-.26-.22-1.06-.88,1.12-5.4a.64.64,0,0,1,.85-.3.65.65,0,0,1,.29.85,13.38,13.38,0,0,0-1.36,3.92,3,3,0,0,0,1.55-.25.64.64,0,1,1,.48,1.18A5.1,5.1,0,0,1,412.6,128.78Zm-.3-1.22h0Z"/><ellipse class="cls-3_coding-29" cx="416.22" cy="122.27" rx="0.62" ry="0.88" transform="translate(-10.22 42.66) rotate(-5.8)"/><ellipse class="cls-3_coding-29" cx="410.93" cy="123.19" rx="0.62" ry="0.88" transform="translate(-9.77 39.21) rotate(-5.4)"/><path class="cls-3_coding-29" d="M413.65,132a9.51,9.51,0,0,1-3.49-.72.63.63,0,0,1-.33-.83.64.64,0,0,1,.84-.33s3,1.26,5,.16a4,4,0,0,0,1.84-3.09.63.63,0,0,1,.72-.53.64.64,0,0,1,.53.73,5.17,5.17,0,0,1-2.48,4A5.35,5.35,0,0,1,413.65,132Z"/><path class="cls-3_coding-29" d="M412.29,134.84s4.66.29,7.06-1.66c0,0-1.93,6.54-6.24,6.61Z"/><path class="cls-3_coding-29" d="M413.11,140.42a.63.63,0,0,1-.63-.53l-.82-4.95a.65.65,0,0,1,.16-.53.64.64,0,0,1,.51-.21s4.44.26,6.62-1.51a.63.63,0,0,1,.75,0,.66.66,0,0,1,.26.71c-.09.29-2.12,7-6.84,7.06Zm-.07-4.93.6,3.61c2.22-.38,3.69-2.8,4.46-4.48A14,14,0,0,1,413,135.49Z"/><path class="cls-4_coding-29 targetColor" d="M438.16,137.77c3.71.66,18.79,35.52,13.63,39.5-8.06,6.21-36.08-.08-36.08-.08l2.28-10.8s18,.5,18.28-3.2-10.48-20.83-9.07-23.39S438.16,137.77,438.16,137.77Z" style="fill: rgb(135, 188, 126);"/><path class="cls-2_coding-29" d="M419.93,170a40.67,40.67,0,0,1-9-.44,28.28,28.28,0,0,0-6.7-.77,25.19,25.19,0,0,0-8.63,2,.57.57,0,0,0-.29.19c-.26.37.36.73.82.74a11.93,11.93,0,0,0,3.52-.44,33.85,33.85,0,0,0-8,4.23c-.28.2-.59.52-.45.84s.71.26,1.07.09l6.45-3a16.14,16.14,0,0,0-4.58,2.78c-.19.17-.4.4-.35.65.1.43.74.35,1.14.15a38.58,38.58,0,0,0,5.6-3.41l-4,3c0,.33.3.6.63.61a1.65,1.65,0,0,0,.91-.32l4.44-2.56-2.77,1.94c-.43.3-.93.79-.71,1.28s1.1.4,1.67.14a33.51,33.51,0,0,1,7.12-2.19,11.56,11.56,0,0,1,2.64-.53,23.67,23.67,0,0,1,4,.87l6,1.39"/><path class="cls-3_coding-29" d="M399.8,178.6a1.54,1.54,0,0,1-.56-.1,1.13,1.13,0,0,1-.67-.63,1.19,1.19,0,0,1-.09-.41l0,0a2.27,2.27,0,0,1-1.23.39,1.3,1.3,0,0,1-.93-.45,1.17,1.17,0,0,1-.17-.28l-.85.43a1.74,1.74,0,0,1-1.45.11,1,1,0,0,1-.52-1.06l-.71.33a1.82,1.82,0,0,1-1.3.13,1,1,0,0,1-.54-.52c-.11-.25-.26-.89.64-1.54a35.22,35.22,0,0,1,4.56-2.76,1.53,1.53,0,0,1-1.14-.73.86.86,0,0,1,.08-.91,1.16,1.16,0,0,1,.53-.39,25.72,25.72,0,0,1,8.84-2,24,24,0,0,1,6,.63l.82.15a41.08,41.08,0,0,0,8.84.43h0a.58.58,0,0,1,0,1.16,42.29,42.29,0,0,1-9.09-.45L410,170a23,23,0,0,0-5.73-.61,24.88,24.88,0,0,0-8,1.75,11.18,11.18,0,0,0,3.24-.42.58.58,0,0,1,.36,1.1,32.87,32.87,0,0,0-7.62,4l4.81-2.21a15.44,15.44,0,0,1,1.49-.68A.58.58,0,0,1,399,174l-1.44.66a15.79,15.79,0,0,0-2.75,1.82,36.94,36.94,0,0,0,5.41-3.31.58.58,0,0,1,.81.12.59.59,0,0,1-.11.81l-3.15,2.41.06,0,4.44-2.56a.57.57,0,0,1,.78.19.57.57,0,0,1-.16.78l-2.76,1.94c-.45.32-.54.54-.52.58a1.29,1.29,0,0,0,.9-.16,33.61,33.61,0,0,1,7.24-2.23c.29-.06.56-.14.84-.22a6.41,6.41,0,0,1,1.94-.33,13.31,13.31,0,0,1,2.94.58c.41.12.82.23,1.21.32q3,.67,6,1.38a.58.58,0,0,1,.44.7.59.59,0,0,1-.7.43q-3-.7-6-1.38c-.41-.09-.83-.21-1.26-.33a11.79,11.79,0,0,0-2.67-.53,5.08,5.08,0,0,0-1.59.28c-.3.09-.6.17-.91.24a32.17,32.17,0,0,0-7,2.15A3.25,3.25,0,0,1,399.8,178.6Z"/><path class="cls-2_coding-29" d="M406.11,142.44c-1,1-3.5,16.85-4.42,24.34"/><path class="cls-3_coding-29" d="M401.7,167.36h-.08a.57.57,0,0,1-.5-.64c.57-4.66,3.26-23.34,4.58-24.68a.58.58,0,0,1,.83.8c-.85,1.16-3.25,15.77-4.26,24A.59.59,0,0,1,401.7,167.36Z"/><polygon class="cls-2_coding-29" points="368.5 181.69 368.94 184.66 409.98 190.66 409.28 187.59 368.5 181.69"/><path class="cls-3_coding-29" d="M410,191.29h-.09l-41-6a.64.64,0,0,1-.54-.54l-.44-3a.63.63,0,0,1,.17-.54.66.66,0,0,1,.55-.18l40.78,5.9a.65.65,0,0,1,.53.49l.7,3.07a.64.64,0,0,1-.16.57A.63.63,0,0,1,410,191.29ZM369.5,184.1l39.65,5.79-.39-1.73-39.51-5.72Z"/><path class="cls-2_coding-29" d="M368.5,181.69s9.34-8,9.65-7.94,42.28,5.1,42.28,5.1l-11.15,8.74Z"/><path class="cls-3_coding-29" d="M409.28,188.23h-.09l-40.79-5.9a.64.64,0,0,1-.32-1.12c9.6-8.22,9.81-8.17,10.22-8.07.62.1,27.88,3.38,42.21,5.09a.64.64,0,0,1,.31,1.13l-11.14,8.74A.67.67,0,0,1,409.28,188.23Zm-39.31-7,39.13,5.67,9.73-7.63c-12.63-1.51-37.74-4.52-40.57-4.89C377.37,175,373.13,178.56,370,181.26Z"/><polygon class="cls-2_coding-29" points="409.98 190.66 420.69 181.69 420.43 178.85 409.28 187.59 409.98 190.66"/><path class="cls-3_coding-29" d="M410,191.29a.76.76,0,0,1-.21,0,.64.64,0,0,1-.41-.46l-.7-3.07a.65.65,0,0,1,.23-.64L420,178.35a.64.64,0,0,1,.64-.08.63.63,0,0,1,.38.52l.26,2.84a.62.62,0,0,1-.23.54l-10.7,9A.65.65,0,0,1,410,191.29Zm0-3.44.38,1.65,9.65-8.09-.12-1.34Z"/><polygon class="cls-2_coding-29" points="368.5 181.69 360.61 155.26 403.87 162.64 409.28 187.59 368.5 181.69"/><path class="cls-3_coding-29" d="M409.28,188.23h-.09l-40.79-5.9a.64.64,0,0,1-.51-.45L360,155.45a.65.65,0,0,1,.14-.61.62.62,0,0,1,.58-.2L404,162a.64.64,0,0,1,.52.49l5.41,25a.63.63,0,0,1-.62.77ZM369,181.12l39.48,5.71-5.13-23.64-41.83-7.13Z"/><path class="cls-3_coding-29" d="M429.35,181.07h-.11l-8.75-1.5A.65.65,0,0,1,420,179l-.28-10.48a.63.63,0,0,1,.57-.65l15.47-1.6-6.85-23.61a.64.64,0,0,1,1.23-.35l7,24.34a.66.66,0,0,1-.08.53.65.65,0,0,1-.46.28L421,169l.25,9.37,8.24,1.42a.63.63,0,0,1-.1,1.26Z"/><path class="cls-2_coding-29" d="M372,222.37c-.72-.66-1.47-1.29-2.25-1.88-1.71-1.28-5.36-3.15-6.4-.15-.65,1.86.34,4.33,1,6a23.77,23.77,0,0,0,6.11,8.56c2.31,2.09,9.69,5.11,9.17-.72a8.76,8.76,0,0,0-1-3A30.58,30.58,0,0,0,372,222.37Z"/><path class="cls-3_coding-29" d="M376.88,238.21a12,12,0,0,1-6.82-2.83,24.48,24.48,0,0,1-6.26-8.78c-.71-1.74-1.77-4.38-1.05-6.45a2.75,2.75,0,0,1,1.81-1.87c2.14-.65,4.94,1.34,5.48,1.75a28.06,28.06,0,0,1,2.3,1.91h0a30.86,30.86,0,0,1,6.8,9,9.12,9.12,0,0,1,1.05,3.21c.21,2.29-.74,3.26-1.56,3.67A3.87,3.87,0,0,1,376.88,238.21Zm-11.4-18.9a1.81,1.81,0,0,0-.58.08,1.65,1.65,0,0,0-1.06,1.15c-.57,1.65.4,4.05,1,5.63a23.17,23.17,0,0,0,6,8.35c1.65,1.5,5.51,3.16,7.27,2.28.74-.37,1.05-1.19.93-2.52a8.28,8.28,0,0,0-.94-2.8,29.81,29.81,0,0,0-6.54-8.68c-.71-.65-1.45-1.27-2.21-1.84A7.48,7.48,0,0,0,365.48,219.31Z"/><path class="cls-2_coding-29" d="M396.86,225.63a2.67,2.67,0,0,0-1.73-.48,2.06,2.06,0,0,0-1,.56,5,5,0,0,0-1.39,4.14,12.37,12.37,0,0,0,1.39,4.28c2,4.15,4.71,8.18,8.72,10.43a7.58,7.58,0,0,0,2.32.91c7.14,1.26,4.19-5.79,2.43-9A27.62,27.62,0,0,0,396.86,225.63Z"/><path class="cls-3_coding-29" d="M406.68,246.19a9.87,9.87,0,0,1-1.63-.15,8,8,0,0,1-2.5-1c-3.53-2-6.46-5.48-9-10.69a13.1,13.1,0,0,1-1.45-4.48,5.63,5.63,0,0,1,1.58-4.62,2.57,2.57,0,0,1,1.31-.7,3.22,3.22,0,0,1,2.11.54h0a28.38,28.38,0,0,1,10.95,11.08c1.28,2.32,3.18,6.55,1.61,8.74A3.46,3.46,0,0,1,406.68,246.19Zm-11.29-20.48h-.16a1.48,1.48,0,0,0-.72.42,4.41,4.41,0,0,0-1.21,3.66,12.06,12.06,0,0,0,1.33,4.08c2.4,5,5.18,8.32,8.48,10.18a6.91,6.91,0,0,0,2.15.83c1.79.32,3,.11,3.49-.63,1-1.42-.2-4.81-1.67-7.51a27.32,27.32,0,0,0-10.5-10.61A2.73,2.73,0,0,0,395.39,225.71Z"/><path class="cls-2_coding-29" d="M394,203.23a.64.64,0,0,1-.63-.57c0-.3-.7-7.32.5-11.32a.63.63,0,0,1,1.21.36c-1.13,3.76-.45,10.76-.45,10.84a.63.63,0,0,1-.56.69Z"/></g><g id="Screen_coding-29"><rect class="cls-2_coding-29" x="47.78" y="153.92" width="279.5" height="197.98" rx="9.87"/><path class="cls-3_coding-29" d="M317.41,352.54H57.65A10.52,10.52,0,0,1,47.15,342V163.79a10.51,10.51,0,0,1,10.5-10.5H317.41a10.51,10.51,0,0,1,10.5,10.5V342A10.52,10.52,0,0,1,317.41,352.54Zm-259.76-198a9.24,9.24,0,0,0-9.23,9.23V342a9.25,9.25,0,0,0,9.23,9.24H317.41a9.25,9.25,0,0,0,9.23-9.24V163.79a9.24,9.24,0,0,0-9.23-9.23Z"/><rect class="cls-3_coding-29" x="58.11" y="179.52" width="258.84" height="161.97"/><path class="cls-3_coding-29" d="M317,342.15H58.11a.66.66,0,0,1-.65-.66v-162a.65.65,0,0,1,.65-.65H317a.65.65,0,0,1,.65.65v162A.66.66,0,0,1,317,342.15ZM58.77,340.84H316.29V180.18H58.77Z"/><rect class="cls-4_coding-29 targetColor" x="58.11" y="164.33" width="258.84" height="15.19" style="fill: rgb(135, 188, 126);"/><path class="cls-4_coding-29 targetColor" d="M317,180.18H58.11a.65.65,0,0,1-.65-.66V164.33a.65.65,0,0,1,.65-.65H317a.65.65,0,0,1,.65.65v15.19A.65.65,0,0,1,317,180.18ZM58.77,178.87H316.29V165H58.77Z" style="fill: rgb(135, 188, 126);"/><path class="cls-2_coding-29" d="M110,195.65H87.75a.63.63,0,0,1-.63-.63.64.64,0,0,1,.63-.64H110a.64.64,0,0,1,.63.64A.63.63,0,0,1,110,195.65Z"/><path class="cls-4_coding-29 targetColor" d="M160.16,195.65H115.75a.63.63,0,0,1-.63-.63.64.64,0,0,1,.63-.64h44.41a.64.64,0,0,1,.63.64A.63.63,0,0,1,160.16,195.65Z" style="fill: rgb(135, 188, 126);"/><path class="cls-4_coding-29 targetColor" d="M175.51,205h-44.4a.64.64,0,0,1,0-1.27h44.4a.64.64,0,1,1,0,1.27Z" style="fill: rgb(135, 188, 126);"/><path class="cls-2_coding-29" d="M115.23,205H93a.64.64,0,1,1,0-1.27h22.25a.64.64,0,1,1,0,1.27Z"/><path class="cls-2_coding-29" d="M120.45,214.25H98.2a.64.64,0,1,1,0-1.27h22.25a.64.64,0,1,1,0,1.27Z"/><path class="cls-4_coding-29 targetColor" d="M183.45,214.25H127.87a.64.64,0,0,1,0-1.27h55.58a.64.64,0,1,1,0,1.27Z" style="fill: rgb(135, 188, 126);"/><path class="cls-2_coding-29" d="M125.68,223.55H103.42a.64.64,0,0,1-.63-.64.63.63,0,0,1,.63-.63h22.26a.63.63,0,0,1,.63.63A.64.64,0,0,1,125.68,223.55Z"/><path class="cls-4_coding-29 targetColor" d="M195,223.55H128.86a.64.64,0,0,1-.63-.64.63.63,0,0,1,.63-.63H195a.63.63,0,0,1,.63.63A.64.64,0,0,1,195,223.55Z" style="fill: rgb(135, 188, 126);"/><path class="cls-2_coding-29" d="M119.77,232.85H97.52a.64.64,0,0,1-.63-.64.63.63,0,0,1,.63-.63h22.25a.63.63,0,0,1,.64.63A.64.64,0,0,1,119.77,232.85Z"/><path class="cls-4_coding-29 targetColor" d="M160.16,232.85H124.32a.64.64,0,0,1-.64-.64.64.64,0,0,1,.64-.63h35.84a.63.63,0,0,1,.63.63A.64.64,0,0,1,160.16,232.85Z" style="fill: rgb(135, 188, 126);"/><path class="cls-4_coding-29 targetColor" d="M209.68,232.85H173.84a.64.64,0,0,1-.63-.64.63.63,0,0,1,.63-.63h35.84a.63.63,0,0,1,.63.63A.64.64,0,0,1,209.68,232.85Z" style="fill: rgb(135, 188, 126);"/><path class="cls-2_coding-29" d="M119.77,242.14H97.52a.63.63,0,0,1-.63-.63.64.64,0,0,1,.63-.64h22.25a.64.64,0,0,1,.64.64A.63.63,0,0,1,119.77,242.14Z"/><path class="cls-4_coding-29 targetColor" d="M160.16,242.14h-31.3a.63.63,0,0,1-.63-.63.64.64,0,0,1,.63-.64h31.3a.64.64,0,0,1,.63.64A.63.63,0,0,1,160.16,242.14Z" style="fill: rgb(135, 188, 126);"/><path class="cls-4_coding-29 targetColor" d="M178.23,242.14h-12.8a.63.63,0,0,1-.63-.63.64.64,0,0,1,.63-.64h12.8a.64.64,0,0,1,.64.64A.64.64,0,0,1,178.23,242.14Z" style="fill: rgb(135, 188, 126);"/><path class="cls-2_coding-29" d="M119.77,251.44H97.52a.63.63,0,0,1-.63-.63.64.64,0,0,1,.63-.64h22.25a.64.64,0,0,1,.64.64A.63.63,0,0,1,119.77,251.44Z"/><path class="cls-4_coding-29 targetColor" d="M171.39,251.44H125.68a.64.64,0,0,1-.64-.63.64.64,0,0,1,.64-.64h45.71a.64.64,0,0,1,.63.64A.63.63,0,0,1,171.39,251.44Z" style="fill: rgb(135, 188, 126);"/><path class="cls-4_coding-29 targetColor" d="M199,251.44H176.77a.64.64,0,0,1-.64-.63.64.64,0,0,1,.64-.64H199a.64.64,0,0,1,.64.64A.64.64,0,0,1,199,251.44Z" style="fill: rgb(135, 188, 126);"/><path class="cls-2_coding-29" d="M104.1,260.74H92.3a.64.64,0,0,1-.64-.63.64.64,0,0,1,.64-.64h11.8a.64.64,0,0,1,.64.64A.64.64,0,0,1,104.1,260.74Z"/><path class="cls-4_coding-29 targetColor" d="M165.43,260.74H113.87a.63.63,0,0,1-.63-.63.64.64,0,0,1,.63-.64h51.56a.64.64,0,0,1,.64.64A.64.64,0,0,1,165.43,260.74Z" style="fill: rgb(135, 188, 126);"/><path class="cls-2_coding-29" d="M114.55,270H92.3a.64.64,0,1,1,0-1.27h22.25a.64.64,0,1,1,0,1.27Z"/><path class="cls-2_coding-29" d="M140,279.34H95.59a.64.64,0,0,1-.64-.64.64.64,0,0,1,.64-.63H140a.64.64,0,0,1,.64.63A.64.64,0,0,1,140,279.34Z"/><path class="cls-4_coding-29 targetColor" d="M178.23,279.34H147.36a.64.64,0,0,1-.64-.64.64.64,0,0,1,.64-.63h30.87a.64.64,0,0,1,.64.63A.64.64,0,0,1,178.23,279.34Z" style="fill: rgb(135, 188, 126);"/><path class="cls-4_coding-29 targetColor" d="M220.86,279.34H182.65a.64.64,0,0,1-.64-.64.63.63,0,0,1,.64-.63h38.21a.63.63,0,0,1,.63.63A.64.64,0,0,1,220.86,279.34Z" style="fill: rgb(135, 188, 126);"/><path class="cls-2_coding-29" d="M162.25,288.64H97.52a.64.64,0,0,1-.63-.64.63.63,0,0,1,.63-.63h64.73a.63.63,0,0,1,.63.63A.64.64,0,0,1,162.25,288.64Z"/><path class="cls-4_coding-29 targetColor" d="M195.78,288.64H166.66A.64.64,0,0,1,166,288a.64.64,0,0,1,.64-.63h29.12a.64.64,0,0,1,.64.63A.64.64,0,0,1,195.78,288.64Z" style="fill: rgb(135, 188, 126);"/><path class="cls-4_coding-29 targetColor" d="M287.31,288.64H200.72a.64.64,0,0,1-.64-.64.64.64,0,0,1,.64-.63h86.59a.63.63,0,0,1,.63.63A.64.64,0,0,1,287.31,288.64Z" style="fill: rgb(135, 188, 126);"/><path class="cls-2_coding-29" d="M127.87,297.94H97.26a.64.64,0,0,1-.64-.64.64.64,0,0,1,.64-.63h30.61a.64.64,0,0,1,.64.63A.64.64,0,0,1,127.87,297.94Z"/><path class="cls-4_coding-29 targetColor" d="M156.5,297.94H134a.64.64,0,0,1-.64-.64.64.64,0,0,1,.64-.63H156.5a.63.63,0,0,1,.63.63A.64.64,0,0,1,156.5,297.94Z" style="fill: rgb(135, 188, 126);"/><path class="cls-4_coding-29 targetColor" d="M185.11,297.94H162.57a.64.64,0,0,1-.63-.64.63.63,0,0,1,.63-.63h22.54a.64.64,0,0,1,.64.63A.64.64,0,0,1,185.11,297.94Z" style="fill: rgb(135, 188, 126);"/><path class="cls-2_coding-29" d="M151.38,307.24H97.26a.64.64,0,0,1,0-1.28h54.12a.64.64,0,0,1,0,1.28Z"/><path class="cls-4_coding-29 targetColor" d="M185.11,307.24H158.05a.64.64,0,0,1,0-1.28h27.06a.64.64,0,1,1,0,1.28Z" style="fill: rgb(135, 188, 126);"/><path class="cls-4_coding-29 targetColor" d="M233,307.24H191.76a.64.64,0,0,1,0-1.28H233a.64.64,0,0,1,0,1.28Z" style="fill: rgb(135, 188, 126);"/><path class="cls-4_coding-29 targetColor" d="M278.53,307.24H237.31a.64.64,0,0,1,0-1.28h41.22a.64.64,0,0,1,0,1.28Z" style="fill: rgb(135, 188, 126);"/><path class="cls-2_coding-29" d="M143.23,316.53H111a.63.63,0,0,1-.64-.63.64.64,0,0,1,.64-.64h32.28a.64.64,0,0,1,.64.64A.64.64,0,0,1,143.23,316.53Z"/><path class="cls-4_coding-29 targetColor" d="M181.57,316.53H149.29a.64.64,0,0,1-.64-.63.64.64,0,0,1,.64-.64h32.28a.64.64,0,0,1,.64.64A.63.63,0,0,1,181.57,316.53Z" style="fill: rgb(135, 188, 126);"/><path class="cls-4_coding-29 targetColor" d="M220.18,316.53H187.9a.63.63,0,0,1-.64-.63.64.64,0,0,1,.64-.64h32.28a.64.64,0,0,1,.63.64A.63.63,0,0,1,220.18,316.53Z" style="fill: rgb(135, 188, 126);"/><path class="cls-4_coding-29 targetColor" d="M260.16,317.58H227.87a.64.64,0,0,1-.63-.64.63.63,0,0,1,.63-.63h32.29a.63.63,0,0,1,.63.63A.64.64,0,0,1,260.16,317.58Z" style="fill: rgb(135, 188, 126);"/><path class="cls-2_coding-29" d="M138,325.83H115.75a.63.63,0,0,1-.63-.63.64.64,0,0,1,.63-.64H138a.64.64,0,0,1,.63.64A.63.63,0,0,1,138,325.83Z"/><path class="cls-4_coding-29 targetColor" d="M165.48,325.83H143.23a.64.64,0,0,1-.64-.63.64.64,0,0,1,.64-.64h22.25a.64.64,0,0,1,.64.64A.63.63,0,0,1,165.48,325.83Z" style="fill: rgb(135, 188, 126);"/><path class="cls-4_coding-29 targetColor" d="M216.88,326.77h0l-46-.94a.64.64,0,0,1-.62-.65.61.61,0,0,1,.65-.62l45.95.94a.64.64,0,0,1,.63.65A.63.63,0,0,1,216.88,326.77Z" style="fill: rgb(135, 188, 126);"/><path class="cls-4_coding-29 targetColor" d="M234,223.55H203.93a.64.64,0,0,1-.63-.64.63.63,0,0,1,.63-.63H234a.64.64,0,0,1,.64.63A.64.64,0,0,1,234,223.55Z" style="fill: rgb(135, 188, 126);"/><path class="cls-4_coding-29 targetColor" d="M256.26,223.64c-5.88,0-10.25,0-10.53-.13a.63.63,0,0,1,.34-1.22c1.15.14,21,.07,34.13,0h0a.64.64,0,0,1,.64.63.64.64,0,0,1-.63.64C273.22,223.59,263.57,223.64,256.26,223.64Z" style="fill: rgb(135, 188, 126);"/><path class="cls-4_coding-29 targetColor" d="M229.22,205H185.54a.64.64,0,0,1,0-1.27h43.68a.64.64,0,0,1,0,1.27Z" style="fill: rgb(135, 188, 126);"/><path class="cls-4_coding-29 targetColor" d="M281.46,205H238a.64.64,0,0,1,0-1.27h43.47a.64.64,0,0,1,0,1.27Z" style="fill: rgb(135, 188, 126);"/><path class="cls-4_coding-29 targetColor" d="M188.2,195.7c-8.06,0-14.21,0-14.46-.06a.63.63,0,0,1,.18-1.25c1.12.07,33.36,0,50.28,0h0a.64.64,0,1,1,0,1.27C217.15,195.67,200.46,195.7,188.2,195.7Z" style="fill: rgb(135, 188, 126);"/><path class="cls-2_coding-29" d="M236,195.69a.6.6,0,0,1-.54-.37.67.67,0,0,1,.34-.87c.5-.26,10.66-.28,30.17-.07a.64.64,0,0,1,.63.64.64.64,0,0,1-.64.63h0c-11.36-.12-28.64-.23-29.71,0A.57.57,0,0,1,236,195.69Z"/><path class="cls-4_coding-29 targetColor" d="M193.9,260.74H171.39a.64.64,0,0,1-.64-.63.64.64,0,0,1,.64-.64H193.9a.64.64,0,0,1,.64.64A.64.64,0,0,1,193.9,260.74Z" style="fill: rgb(135, 188, 126);"/><path class="cls-4_coding-29 targetColor" d="M142.24,270H125.68a.64.64,0,1,1,0-1.27h16.56a.64.64,0,0,1,0,1.27Z" style="fill: rgb(135, 188, 126);"/><path class="cls-2_coding-29" d="M187.9,270H148.53a.64.64,0,0,1,0-1.27H187.9a.64.64,0,0,1,0,1.27Z"/><path class="cls-4_coding-29 targetColor" d="M272.05,270H195.78a.64.64,0,0,1,0-1.27h76.27a.64.64,0,1,1,0,1.27Z" style="fill: rgb(135, 188, 126);"/><circle class="cls-3_coding-29" cx="67.96" cy="171.93" r="2.23"/><circle class="cls-2_coding-29" cx="75.75" cy="171.93" r="2.23"/><circle class="cls-2_coding-29" cx="83.54" cy="171.93" r="2.23"/><polygon class="cls-2_coding-29" points="229.12 380.56 145.94 380.56 155.34 351.9 219.72 351.9 229.12 380.56"/><path class="cls-3_coding-29" d="M229.12,381.22H145.94a.65.65,0,0,1-.62-.86l9.4-28.66a.65.65,0,0,1,.62-.45h64.38a.65.65,0,0,1,.62.45l9.4,28.66a.65.65,0,0,1-.09.59A.66.66,0,0,1,229.12,381.22Zm-82.27-1.31h81.36l-9-27.35H155.82Z"/><rect class="cls-2_coding-29" x="135.04" y="380.56" width="104.99" height="8.07" rx="4.04"/><path class="cls-3_coding-29" d="M236,389.29H139.07a4.69,4.69,0,0,1,0-9.38H236a4.69,4.69,0,0,1,0,9.38Zm-96.92-8.07a3.38,3.38,0,0,0,0,6.76H236a3.38,3.38,0,0,0,0-6.76Z"/><path class="cls-3_coding-29" d="M148.44,373c1.34-.71,73.35-13.87,73.35-13.87l-2.36-7.2H155.06Z"/><path class="cls-3_coding-29" d="M148.42,373.62a.68.68,0,0,1-.4-.15.66.66,0,0,1-.19-.69l6.62-21.07a.64.64,0,0,1,.61-.44h64.37a.62.62,0,0,1,.6.43l2.36,7.2a.6.6,0,0,1-.06.52.61.61,0,0,1-.43.3c-19.75,3.61-71.41,13.13-73.2,13.83A.68.68,0,0,1,148.42,373.62Zm7.1-21.08-6.14,19.54c8.65-1.95,59.08-11.19,71.58-13.48l-2-6.06Z"/></g></svg>